name processed_emg_signals
nRows=42
nColumns=7
 
endheader
time	LGLTMED	LRF	LADDLONG	LST	LTA	LGM
1.28	0.0516441535840983	0.2756873447505615	0.6614025133425732	0.0299684600458535	0.1850499807932447	0.1369297592789557
1.281	0.0519716016321703	0.2781884709401089	0.6679253736917502	0.0299490301785463	0.1844466911276481	0.1335566494575617
1.282	0.0522959006891738	0.2807533854708173	0.674309803614507	0.029928302999818	0.1838302451451894	0.1302412725942742
1.283	0.0526165922462619	0.2833811924056824	0.6805493958267086	0.0299062049865261	0.1832010430609034	0.1269846311640957
1.284	0.0529332360329307	0.2860709254614771	0.6866378695682971	0.0298826680868083	0.182559503256802	0.1237876638235502
1.285	0.0532454102072803	0.2888215481711658	0.6925690808509655	0.0298576300102962	0.1819060633548581	0.120651245626463
1.286	0.053552711523532	0.2916319541208423	0.6983370325725213	0.0298310345111852	0.1812411812413704	0.117576188313935
1.287	0.0538547554772119	0.2945009672624996	0.7039358844753496	0.0298028316633974	0.1805653360382982	0.1145632406742151
1.288	0.0541511764283638	0.2974273423036198	0.7093599629265176	0.0297729781270457	0.1798790290177641	0.1116130889681974
1.289	0.0544416277031304	0.3004097651740406	0.7146037704975937	0.0297414374053494	0.1791827844565993	0.1087263574162439
1.29	0.0547257816740172	0.3034468535693377	0.7196619953214385	0.0297081800912027	0.1784771504284566	0.1059036087421344
1.291	0.0550033298191614	0.3065371575702206	0.7245295202039141	0.0296731841025893	0.1777626995318719	0.1031453447701413
1.292	0.055273982760857	0.3096791603360433	0.7292014314668293	0.0296364349059998	0.1770400295531731	0.100452007071476
1.293	0.0555374702836325	0.3128712788707551	0.7336730274987735	0.0295979257271082	0.1763097640636766	0.0978239776565285
1.294	0.0557935413321038	0.3161118648596492	0.737939826990312	0.0295576577479444	0.1755725529510218	0.0952615797095926
1.295	0.0560419639887111	0.3193992055749806	0.7419975768305509	0.0295156402898919	0.1748290728850298	0.092765078363118
1.296	0.0562825254315101	0.3227315248497197	0.745842259642983	0.0294718909818456	0.1740800277186272	0.090334681508759
1.297	0.0565150318718794	0.3261069841178633	0.749470100939116	0.029426435912975	0.1733261488246021	0.0879705406432036
1.298	0.0567393084721028	0.3295236835204804	0.7528775758696388	0.0293793097694778	0.1725681953688831	0.0856727517471039
1.299	0.0569551992426145	0.332979663075835	0.7560614155536269	0.0293305559549207	0.1718069545210868	0.083441356195994
1.3	0.0571625669189072	0.3364729039117012	0.7590186129682718	0.029280226693665	0.171043241603304	0.0812763417021615
1.301	0.057361292818153	0.3400013295578796	0.7617464283820888	0.0292283831170395	0.170277900178168	0.0791776432865305
1.302	0.0575512766756314	0.343562807297558	0.7642423943175283	0.02917509533185	0.1695118020773217	0.077145144279527
1.303	0.0577324364612553	0.3471551495761837	0.7665043200293689	0.0291204424708513	0.1687458473712718	0.0751786773499306
1.304	0.0579047081762702	0.3507761154675073	0.7685302954856115	0.0290645127247705	0.1679809642814037	0.0732780255607104
1.305	0.0580680456301845	0.354423412196635	0.7703186948376932	0.029007403355542	0.16721810903469	0.0714429234508594
1.306	0.0582224201979053	0.3580946967197981	0.7718681793657245	0.0289492206903643	0.1664582656614755	0.0696730581420145
1.307	0.0583678205569369	0.3617875773603394	0.773177699885382	0.0288900800962256	0.1657024457367657	0.0679680704686667
1.308	0.0585042524045679	0.3654996155008235	0.7742464986041427	0.0288301059345266	0.1649516880656269	0.0663275561306198
1.309	0.058631738154909	0.3692283273310292	0.7750741104169815	0.0287694314955753	0.1642070583135826	0.0647510668663192
1.31	0.0587503166158232	0.3729711856522802	0.7756603636358228	0.0287081989127639	0.1634696485830463	0.0632381116457239
1.311	0.0588600426457763	0.3767256217397855	0.7760053801503773	0.028646559056436	0.1627405769367869	0.0617881578812141
1.312	0.0589609867908747	0.3804890272656515	0.776109575022952	0.0285846714075392	0.1620209868693068	0.0604006326549462
1.313	0.059053234902273	0.3842587562861392	0.7759736555246902	0.0285227039112336	0.1613120467267836	0.0590749239609889
1.314	0.0591368877343901	0.3880321272980017	0.7755986196233372	0.0284608328106632	0.1606149490758797	0.057810381960463
1.315	0.0592120605242985	0.3918064253687672	0.7749857539357111	0.0283992424610824	0.1599309100214985	0.0566063202480817
1.316	0.0592788825528274	0.3955789043461548	0.7741366311608557	0.0283381251245628	0.1592611684732422	0.0554620171284554
1.317	0.0593374966879745	0.3993467891516381	0.7730531070103221	0.0282776807454623	0.1586069853603117	0.0543767169007474
1.318	0.0593880589113804	0.403107278162326	0.77173731665259	0.0282181167069241	0.1579696427943917	0.0533496311502423
1.319	0.0594307378286928	0.4068575456846861	0.7701916706878061	0.028159647568623	0.157350443180099	0.0523799400456043
1.32	0.0594657141646863	0.4105947445222252	0.7684188506672908	0.0281024947859836	0.1567507082724037	0.0514667936407384
1.321	0.0594931802439219	0.4143160086385269	0.7664218041717704	0.0280468864110164	0.1561717781804836	0.0506093131801767
